<svg width="18" height="19" viewBox="0 0 18 19" fill="none" xmlns="http://www.w3.org/2000/svg">
<g id="total">
<path id="Vector" d="M10.2273 11.2187C9.54545 11.2187 8.96591 10.9818 8.48864 10.5078C8.01136 10.0339 7.77273 9.45833 7.77273 8.78125C7.77273 8.10417 8.01136 7.52865 8.48864 7.05469C8.96591 6.58073 9.54545 6.34375 10.2273 6.34375C10.9091 6.34375 11.4886 6.58073 11.9659 7.05469C12.4432 7.52865 12.6818 8.10417 12.6818 8.78125C12.6818 9.45833 12.4432 10.0339 11.9659 10.5078C11.4886 10.9818 10.9091 11.2187 10.2273 11.2187ZM3.68182 14.0625C3.34432 14.0625 3.0554 13.9432 2.81506 13.7045C2.57472 13.4658 2.45455 13.1789 2.45455 12.8438V4.71875C2.45455 4.38359 2.57472 4.09668 2.81506 3.85801C3.0554 3.61934 3.34432 3.5 3.68182 3.5H16.7727C17.1102 3.5 17.3991 3.61934 17.6395 3.85801C17.8798 4.09668 18 4.38359 18 4.71875V12.8438C18 13.1789 17.8798 13.4658 17.6395 13.7045C17.3991 13.9432 17.1102 14.0625 16.7727 14.0625H3.68182ZM5.72727 12.8438H14.7273C14.7273 12.275 14.925 11.7943 15.3205 11.4016C15.7159 11.0089 16.2 10.8125 16.7727 10.8125V6.75C16.2 6.75 15.7159 6.55365 15.3205 6.16094C14.925 5.76823 14.7273 5.2875 14.7273 4.71875H5.72727C5.72727 5.2875 5.52955 5.76823 5.13409 6.16094C4.73864 6.55365 4.25455 6.75 3.68182 6.75V10.8125C4.25455 10.8125 4.73864 11.0089 5.13409 11.4016C5.52955 11.7943 5.72727 12.275 5.72727 12.8438ZM15.5455 16.5H1.22727C0.889773 16.5 0.600852 16.3807 0.360511 16.142C0.12017 15.9033 0 15.6164 0 15.2812V5.9375H1.22727V15.2812H15.5455V16.5Z" fill="#737373"/>
</g>
</svg>
